# xmcd
#
# Track frame offsets: 
#        150
#        19685
#        38765
#        56868
#        75933
#        92293
#        114015
#        133953
#        158565
#
# Disc length: 2454 seconds
#
# Revision: 0
# Processed by: cddbd v1.5.2PL0 Copyright (c) Steve Scherf et al.
# Submitted via: ExactAudioCopy v0.99pb5
#
DISCID=5c099409
DTITLE=Noble Watts - Noble and Nat
DYEAR=1989
DGENRE=Blues
TTITLE0=Yo Yo
TTITLE1=Rheumatism
TTITLE2=My Granny Doobie
TTITLE3=Night Time Is the Right Time
TTITLE4=The Creep
TTITLE5=Camp Meeting
TTITLE6=Help Is on the Way
TTITLE7=Into the Sun
TTITLE8=Keep It
EXTD=
EXTT0=
EXTT1=
EXTT2=
EXTT3=
EXTT4=
EXTT5=
EXTT6=
EXTT7=
EXTT8=
PLAYORDER=
